<?xml version="1.0" encoding="utf-8"?>
<!-- Generator: Adobe Illustrator 23.0.1, SVG Export Plug-In . SVG Version: 6.00 Build 0)  -->
<svg version="1.1" id="Capa_1" xmlns="http://www.w3.org/2000/svg" xmlns:xlink="http://www.w3.org/1999/xlink" x="0px" y="0px"
	 viewBox="0 0 935.4 397.3" style="enable-background:new 0 0 935.4 397.3;" xml:space="preserve">
<style type="text/css">
	.st0{fill:#ECECEC;}
</style>
<g>
	<g>
		<path class="st0" d="M344.4,109L195.9,37.3c-1.3-0.6-2.9-0.6-4.2,0L43.2,109c-1.7,0.8-2.7,2.5-2.7,4.3v174.2
			c0,1.8,1.1,3.5,2.7,4.3l148.6,71.7c0.7,0.3,1.4,0.5,2.1,0.5c0.7,0,1.4-0.2,2.1-0.5l148.6-71.7c1.7-0.8,2.7-2.5,2.7-4.3V113.3
			C347.1,111.4,346.1,109.8,344.4,109z M193.8,46.9l137.5,66.4l-39.9,19.2c-0.3-0.2-0.5-0.4-0.8-0.5L154,66.1L193.8,46.9z
			 M143.2,71.5l137.3,66.3l-28.1,13.6L115.2,85.1L143.2,71.5z M283.8,146.9v50.2l-26.3,12.7v-50.2L283.8,146.9z M189,351.5L50,284.4
			V120.9l132.5,64c0,0,0,0,0.1,0l6.3,3.1L189,351.5L189,351.5z M193.8,179.7l-13.3-6.4h-0.1l-124.1-60l47.6-23l137.6,66.4
			L193.8,179.7z M337.6,284.4L337.6,284.4l-139,67.1V188l49.3-23.8v53.2c0,1.6,0.8,3.2,2.2,4.1c0.8,0.5,1.7,0.7,2.5,0.7
			c0.7,0,1.4-0.2,2.1-0.5l35.9-17.3c1.7-0.8,2.7-2.5,2.7-4.3v-57.8l44.2-21.3L337.6,284.4L337.6,284.4z"/>
	</g>
</g>
<g>
	<g>
		<path class="st0" d="M89.6,280.2l-21.8-10.5c-2.4-1.2-5.2-0.2-6.4,2.2s-0.2,5.2,2.2,6.4l21.8,10.5c0.7,0.3,1.4,0.5,2.1,0.5
			c1.8,0,3.5-1,4.3-2.7C93,284.2,92,281.4,89.6,280.2z"/>
	</g>
</g>
<g>
	<path class="st0" d="M70.3,273l0.2-24.2c0-2.6-2.1-4.8-4.8-4.8s-4.8,2.1-4.8,4.8L60.7,273c0,0.7,0.2,1.5,0.5,2.1
		c0.8,1.6,2.4,2.7,4.3,2.7C68.1,277.8,70.3,275.6,70.3,273z"/>
</g>
<g>
	<g>
		<path class="st0" d="M89.6,253.9l-21.8-10.5c-2.4-1.2-5.2-0.2-6.4,2.2s-0.2,5.2,2.2,6.4l21.8,10.5c0.7,0.3,1.4,0.5,2.1,0.5
			c1.8,0,3.5-1,4.3-2.7C93,258,92,255.1,89.6,253.9z"/>
	</g>
</g>
<path class="st0" d="M431,133.5c-2.9,4.8-6.6,9.7-10.5,14.3v50h-7v-42.2c-3.6,3.7-7.2,7.1-10.7,9.9c-1-1.4-3.5-4.5-4.9-5.9
	c9.8-6.9,20-17.9,26.6-28.6L431,133.5z M427.3,113.5c-6.2,8.4-15.9,17.6-24.3,23.6c-1-1.5-2.9-4.3-4.2-5.6
	c7.9-5.3,17-13.9,21.8-20.6L427.3,113.5z M485.5,149.3h-14.3v39.2c0,4.4-1,6.6-4.2,7.7c-3.2,1-8.6,1-17.9,1
	c-0.3-1.9-1.2-4.8-2.3-6.8c6.7,0.2,13,0.2,14.8,0.1c1.8-0.1,2.4-0.5,2.4-2.1v-39.1h-31.7v-6.7h53.2V149.3z M482.8,123.3h-46.4v-6.6
	h46.4V123.3z"/>
<path class="st0" d="M583.7,132.9c0,0-0.1,2.7-0.1,3.6c-1,39.8-1.9,53-5.1,57c-1.6,2.5-3.5,3.2-6.4,3.5c-2.7,0.4-7.1,0.3-11.5,0
	c-0.2-1.9-0.9-4.8-2-6.7c4.6,0.4,8.7,0.5,10.5,0.5c1.6,0,2.5-0.3,3.4-1.5c2.2-2.8,3.3-15.3,4.3-49.8h-13.6
	c-1.1,25.3-5.5,46-22.2,58.5c-1-1.5-3.5-3.9-5.2-5c1.5-1,2.9-2.2,4.2-3.3c-14.4,1.7-29.2,3.3-39.8,4.5l-1-6.2
	c5.7-0.5,12.8-1.1,20.6-1.9v-8.2h-18v-5.4h18v-5.8H502v-28.2h17.8v-6h-20.5V127h20.5v-6.3c-6.1,0.5-12.3,0.9-17.9,1
	c-0.3-1.5-1-3.8-1.7-5.2c14.1-0.8,31.2-2.5,40.9-4.7l3.5,5.4c-5.1,1.1-11.6,2-18.5,2.8v6.9h20.1v5.5h-20.1v6h18.4v28.2h-18.4v5.8
	h18.6v5.4h-18.6v7.5c6.2-0.6,12.6-1.2,19-2v0.5c8.3-11.2,10.7-26.5,11.6-44.4h-11.1v-6.7h11.3c0.2-6.7,0.2-13.6,0.2-20.8h6.7
	c0,7.1,0,14.2-0.2,20.8h20.1V132.9z M507.8,150.1h12v-6.8h-12V150.1z M519.7,161.7v-6.9h-12v6.9H519.7z M526.1,143.3v6.8h12.4v-6.8
	H526.1z M538.6,154.8h-12.4v6.9h12.4V154.8z"/>
<path class="st0" d="M613.8,123.4c-3,4.8-6.5,9-9.9,12.3c-1-1.1-3.4-3.5-4.9-4.7c5.9-5.2,11.3-12.8,14.5-20.7l6.3,1.7
	c-0.9,1.9-1.7,3.8-2.8,5.7h24.5v5.7h-18c2.9,2.6,6.5,6.1,8.3,8.3l-4.7,3.9c-1.9-2.5-5.8-6.5-8.8-9.4l3.6-2.8L613.8,123.4
	L613.8,123.4z M642.8,130.1c1.3,2.2,2.9,4.9,3.8,7.3h34.6v15.5h-7V143h-62.8v9.9h-6.8v-15.5h34.9c-0.9-2-1.8-4.2-2.9-6L642.8,130.1z
	 M622,174.3h52.6v23.2h-6.9v-3H622v3.2h-7v-48.8h54.7v18.9H622V174.3z M622,154.2v8.1h40.8v-8.1H622z M622,179.8v9.1h45.7v-9.1H622z
	 M685,117.8v5.6h-20.4c3.4,2.8,7.6,6.4,9.8,8.8l-4.8,4.2c-2.2-2.7-6.6-6.7-10.1-9.7l4.1-3.3h-10.8c-2.2,2.9-4.5,5.7-6.9,7.8
	c-1.1-1-3.7-3.2-5.3-4.2c5.1-4.1,9.4-10.3,11.8-16.7l6.5,1.6c-0.8,2-1.6,4-2.7,5.9H685z"/>
<path class="st0" d="M729.1,178c-10.2,3.4-21,7.1-29.5,9.9l-1.6-7.1c3.5-1,7.9-2.4,12.7-4v-25.6H700v-6.7h10.8v-20.6H699v-6.6h29.5
	v6.6h-10.9v20.6h9.6v6.7h-9.6v23.5l10.4-3.4L729.1,178z M785.8,188.1v6.5h-61.2v-6.5h28.9v-13H732v-6.5h21.6v-11.1h-20.4v-42.3h48.3
	v42.3h-20.7v11.1h22.1v6.5h-22.1v13H785.8z M739.6,133.3H754v-12h-14.4V133.3z M739.6,151.3H754v-12.2h-14.4V151.3z M774.6,121.4
	h-14.5v12h14.5V121.4z M774.6,139.1h-14.5v12.2h14.5V139.1z"/>
<path class="st0" d="M826.6,181.9l6.3,4.1c-7.6,4.7-19.9,9.2-29.5,11.7c-1.2-1.4-3.5-3.8-5.2-5.2c9.8-2.3,21.9-6.7,27.9-10.5h-17.7
	v-40.7h67V182h-48.8V181.9z M871.6,135.8h-59.3v-21.3h59.3V135.8z M815.4,153.1h52.7v-6.7h-52.7V153.1z M815.4,164.8h52.7v-6.6
	h-52.7V164.8z M815.4,176.7h52.7v-6.8h-52.7V176.7z M864.3,120.2h-44.9v9.9h44.9V120.2z M855.4,182.1c9.8,2.8,22.4,7.5,29.8,10.5
	l-6.1,5.1c-7.1-3.3-19.9-8.2-29.8-11.1L855.4,182.1z"/>
<path class="st0" d="M444.8,287.1c-0.4,2.2-0.7,4.6-1,7.1c-5.4,1.2-10.4,1.8-14.9,1.8c-4,0-7.9-0.7-11.6-2s-7-3.4-9.8-6.2
	c-2.8-2.8-4.8-6.1-6.1-10c-1.3-3.8-1.9-7.9-1.9-12.3c0-4.7,0.7-9.2,2.1-13.5c1.4-4.3,3.5-8,6.4-11c2.8-3,6.3-5.3,10.3-6.8
	s8.3-2.2,12.7-2.2c4.7,0,9.5,0.5,14.2,1.6c0,1.5,0.2,3.9,0.5,7c-3.1-1-5.7-1.7-7.8-2.1c-2.1-0.3-4.2-0.5-6.1-0.5
	c-3.3,0-6.4,0.6-9.4,1.7c-3,1.1-5.7,2.9-8,5.3c-2.3,2.4-4.1,5.4-5.3,8.9c-1.2,3.5-1.8,7.2-1.8,11c0,3.5,0.5,6.9,1.5,10.1
	s2.5,5.9,4.5,8.1s4.4,3.9,7.2,5c2.8,1.2,5.9,1.7,9.4,1.7C434.1,289.9,439.1,289,444.8,287.1z"/>
<path class="st0" d="M487.8,232c4.1,0,7.9,0.7,11.6,2s6.9,3.5,9.7,6.5c2.8,3,4.8,6.4,6,10.1c1.2,3.7,1.8,7.8,1.8,12.1
	c0,4.7-0.7,9.2-2,13.5s-3.4,8-6.1,11c-2.8,3-6.1,5.2-10.2,6.7c-4,1.5-8.2,2.2-12.7,2.2c-4.2,0-8.3-0.7-12.1-2
	c-3.9-1.4-7.2-3.5-9.9-6.3c-2.7-2.8-4.7-6.2-5.9-10c-1.2-3.8-1.8-7.9-1.8-12.2c0-4.7,0.7-9.3,2.2-13.6c1.5-4.3,3.6-8,6.5-11
	s6.3-5.2,10.3-6.7C479.2,232.7,483.4,232,487.8,232z M487.3,238.1c-3.3,0-6.4,0.6-9.4,1.7c-2.9,1.2-5.5,3-7.7,5.6s-3.8,5.6-4.9,9.1
	c-1.1,3.5-1.6,7.1-1.6,10.9c0,3.5,0.5,6.9,1.6,10.1c1,3.2,2.6,5.9,4.6,8.1c2,2.1,4.5,3.7,7.4,4.8c2.9,1,5.9,1.6,9,1.6
	c3.2,0,6.2-0.6,9.1-1.7s5.4-2.9,7.5-5.3s3.7-5.4,4.7-8.8c1-3.5,1.5-7.1,1.5-10.9c0-3.6-0.5-7-1.4-10.2c-0.9-3.3-2.4-6-4.4-8.3
	s-4.4-4-7.2-5C493.4,238.6,490.5,238.1,487.3,238.1z"/>
<path class="st0" d="M529.2,295l0.8-12.6l1.4-36.9l0.2-7.2c0-2.3,0-4,0-5.3c2.1,0,3.8,0,5.2,0c1.1,0,2.7,0,4.7,0l4.5,8l27.3,45.3
	L575,233h3.7h3.6l-0.9,15.9l-1.1,28l-0.5,18.1c-1.6-0.1-3.2-0.1-4.8-0.1c-1.4,0-3.1,0-5,0.1l-3.8-6.7l-28-46.1
	c-0.1,1.7-0.2,4.4-0.3,8l-1.2,32.1l-0.2,12.7c-1.8-0.1-3-0.1-3.6-0.1C532.5,294.9,531.3,295,529.2,295z"/>
<path class="st0" d="M640.1,287.1c-0.4,2.2-0.7,4.6-1,7.1c-5.4,1.2-10.4,1.8-14.9,1.8c-4,0-7.9-0.7-11.6-2c-3.7-1.3-7-3.4-9.8-6.2
	c-2.8-2.8-4.8-6.1-6.1-10c-1.3-3.8-1.9-7.9-1.9-12.3c0-4.7,0.7-9.2,2.1-13.5c1.4-4.3,3.5-8,6.4-11c2.8-3,6.3-5.3,10.3-6.8
	s8.3-2.2,12.7-2.2c4.7,0,9.5,0.5,14.2,1.6c0,1.5,0.2,3.9,0.5,7c-3.1-1-5.7-1.7-7.8-2.1c-2.1-0.3-4.2-0.5-6.1-0.5
	c-3.3,0-6.4,0.6-9.4,1.7c-3,1.1-5.7,2.9-8,5.3c-2.3,2.4-4.1,5.4-5.3,8.9s-1.8,7.2-1.8,11c0,3.5,0.5,6.9,1.5,10.1s2.5,5.9,4.5,8.1
	s4.4,3.9,7.2,5c2.8,1.2,5.9,1.7,9.4,1.7C629.4,289.9,634.4,289,640.1,287.1z"/>
<path class="st0" d="M653,295l0.6-10.5l0.9-21.8l0.6-21.5c0-1.2,0-2.5,0-3.7v-4.6h4.3h4c-0.5,7.6-0.9,15.5-1.1,23.7
	c-0.4,13.2-0.8,26-0.9,38.3l-3.9-0.1C656.9,294.9,655.5,295,653,295z"/>
<path class="st0" d="M677.4,295l1-17.1l1.2-32l0.1-7c0-1.8,0-3.8,0-6c6.2,0,12.6,0,19.1,0H712h4.2c-0.2,2.1-0.3,4.2-0.4,6.4
	l-3.7-0.2c-0.9-0.1-2.5-0.1-4.7-0.1s-4.4,0-6.6,0c-6.5,0-11,0-13.6,0.1l-0.7,21.3c4.2,0.1,8,0.1,11.4,0.1c3.7,0,8.5-0.1,14.4-0.2
	c-0.2,2.1-0.3,4.2-0.4,6.3l-14.2-0.1c-2.8,0-6.7,0.1-11.6,0.2l-0.7,22.4h4.3c7.8,0,13,0,15.5-0.1s5.5-0.2,8.9-0.4
	c-0.2,2.2-0.3,4.4-0.4,6.4c-6.6-0.1-12.2-0.1-16.8-0.1L677.4,295z"/>
<path class="st0" d="M728.6,295l0.8-12.2l0.9-22.6l0.4-19c0.1-3.8,0.1-6.6,0.1-8.2c3.3,0.1,6,0.1,8.2,0.1c1.9,0,3.9,0,6.2-0.1
	s4.1-0.1,5.6-0.1c2.6,0,4.9,0.2,7,0.6c2.1,0.4,4,1.3,5.7,2.7s2.9,3,3.7,4.9s1.2,4,1.2,6.3s-0.3,4.4-0.9,6.3
	c-0.6,1.9-1.5,3.7-2.7,5.3c-1.2,1.6-2.6,2.9-4.3,3.9c-1.3,0.8-2.8,1.4-4.7,1.9c-1.3,0.3-3,0.6-5.2,0.9l7.3,12.8l7.5,12.7
	c0.5,0.9,1.3,2.2,2.3,4c-2.1-0.1-3.6-0.1-4.3-0.1c-0.8,0-2.2,0-4.4,0.1l-3-6.2c-0.6-1.2-1.2-2.4-1.8-3.6s-1.3-2.5-2-3.8l-9.4-16.8
	c-0.4-0.7-1-1.8-1.9-3.5c2.1,0.4,4,0.6,5.6,0.6c2.8,0,5.3-0.5,7.5-1.5s4-2.6,5.2-4.7c1.2-2.1,1.8-4.4,1.8-7c0-1.4-0.2-2.7-0.6-3.9
	c-0.4-1.2-1-2.2-1.8-3s-1.7-1.4-2.5-1.8c-0.8-0.4-1.9-0.6-3.1-0.8c-1.3-0.2-2.6-0.3-4.1-0.3L743,239c-2.5,0-4.1,0-4.8,0
	c-0.9,20.4-1.4,39.1-1.6,56.2l-4.1-0.1C732,294.9,730.7,295,728.6,295z"/>
<path class="st0" d="M811.9,260.3c4.8,0,8.4,0,11,0c2.7,0,5.8,0,9.2,0c-0.6,9.1-1.1,20-1.4,32.8c-8.3,2-15.5,3-21.4,3
	c-4.4,0-8.6-0.6-12.6-1.9c-4-1.2-7.4-3.1-10.1-5.7c-2.8-2.5-4.8-5.8-6.2-9.8s-2.1-8.2-2.1-12.7c0-5.1,0.9-9.8,2.6-14.3
	c1.7-4.5,4.2-8.2,7.4-11.2s6.7-5.2,10.7-6.5s8.4-2,13.2-2c5.3,0,11.2,0.8,17.7,2.3c0.1,2.3,0.2,4.7,0.4,7.4c-3.9-1.4-7.2-2.4-10-2.9
	s-5.4-0.8-7.8-0.8c-3.7,0-7.3,0.6-10.6,1.8c-3.4,1.2-6.2,3.1-8.6,5.6c-2.4,2.5-4.2,5.7-5.5,9.4c-1.2,3.7-1.9,7.6-1.9,11.5
	c0,3.5,0.5,6.9,1.5,10s2.5,5.6,4.6,7.6c2,2,4.5,3.5,7.5,4.5c2.9,1,6.1,1.6,9.6,1.6c1.9,0,4.1-0.2,6.7-0.6c2.6-0.4,5.2-1,7.8-1.9
	l0.8-21.5h-3.9c-2.6,0-5.6,0.1-8.9,0.2C811.8,264.1,811.9,262.1,811.9,260.3z"/>
<path class="st0" d="M846.3,295l1-17.1l1.2-32l0.1-7c0-1.8,0-3.8,0-6c6.2,0,12.6,0,19.1,0h13.2h4.2c-0.2,2.1-0.3,4.2-0.4,6.4
	l-3.7-0.2c-0.9-0.1-2.5-0.1-4.7-0.1s-4.4,0-6.6,0c-6.5,0-11,0-13.6,0.1l-0.7,21.3c4.2,0.1,8,0.1,11.4,0.1c3.7,0,8.5-0.1,14.4-0.2
	c-0.2,2.1-0.3,4.2-0.4,6.3l-14.2-0.1c-2.8,0-6.7,0.1-11.6,0.2l-0.7,22.4h4.3c7.8,0,13,0,15.5-0.1s5.5-0.2,8.9-0.4
	c-0.2,2.2-0.3,4.4-0.4,6.4c-6.6-0.1-12.2-0.1-16.8-0.1L846.3,295z"/>
</svg>
