<?xml version="1.0" encoding="utf-8"?>
<!-- Generator: Adobe Illustrator 23.0.1, SVG Export Plug-In . SVG Version: 6.00 Build 0)  -->
<svg version="1.1" id="Capa_1" xmlns="http://www.w3.org/2000/svg" xmlns:xlink="http://www.w3.org/1999/xlink" x="0px" y="0px"
	 viewBox="0 0 512 512" style="enable-background:new 0 0 512 512;" xml:space="preserve">
<style type="text/css">
	.st0{fill:#005F69;}
	.st1{fill:#005F69;stroke:#005F69;stroke-miterlimit:10;}
</style>
<g>
	<g>
		<path class="st0" d="M488.1,115.2L259.2,4.6c-2-1-4.4-1-6.4,0L23.9,115.2c-2.6,1.2-4.2,3.8-4.2,6.7v268.4c0,2.8,1.6,5.4,4.2,6.7
			l228.9,110.5c1,0.5,2.1,0.7,3.2,0.7s2.2-0.2,3.2-0.7l228.9-110.5c2.6-1.2,4.2-3.8,4.2-6.7V121.8
			C492.3,119,490.7,116.4,488.1,115.2z M256,19.5l211.9,102.3l-61.4,29.7c-0.4-0.3-0.8-0.6-1.3-0.8L194.8,49.1L256,19.5z
			 M178.1,57.4l211.6,102.2l-43.3,20.9L134.8,78.4L178.1,57.4z M394.6,173.6v77.3l-40.5,19.5v-77.3L394.6,173.6z M248.6,488.9
			L34.5,385.6v-252l204.2,98.6c0,0,0.1,0,0.1,0l9.8,4.7V488.9z M256,224.1l-20.5-9.9c0,0-0.1,0-0.1-0.1L44.1,121.8l73.4-35.4
			l212,102.3L256,224.1z M477.5,385.6L477.5,385.6L263.4,488.9V237l76-36.6v81.9c0,2.5,1.3,4.9,3.5,6.3c1.2,0.8,2.6,1.1,3.9,1.1
			c1.1,0,2.2-0.2,3.2-0.7l55.3-26.7c2.6-1.2,4.2-3.8,4.2-6.7v-89.1l68.1-32.9V385.6z"/>
	</g>
</g>
<g>
	<g>
		<path class="st0" d="M95.4,375.1l-33.6-16.2c-3.7-1.8-8.1-0.2-9.9,3.4c-1.8,3.7-0.2,8.1,3.4,9.9L89,388.4c1,0.5,2.1,0.7,3.2,0.7
			c2.7,0,5.4-1.5,6.7-4.2C100.6,381.2,99.1,376.8,95.4,375.1z"/>
	</g>
</g>
<g>
	<path class="st0" d="M65.7,363.9l0.3-37.3c0-4.1-3.2-7.4-7.3-7.4c-4.1,0-7.4,3.2-7.4,7.3l-0.3,37.3c0,1.1,0.2,2.2,0.7,3.2
		c1.2,2.5,3.7,4.2,6.6,4.2C62.3,371.3,65.7,368,65.7,363.9z"/>
</g>
<g>
	<g>
		<path class="st0" d="M95.4,334.5l-33.6-16.2c-3.7-1.8-8.1-0.2-9.9,3.4c-1.8,3.7-0.2,8.1,3.4,9.9L89,347.8c1,0.5,2.1,0.7,3.2,0.7
			c2.7,0,5.4-1.5,6.7-4.2C100.6,340.7,99.1,336.3,95.4,334.5z"/>
	</g>
</g>
</svg>
