<?xml version="1.0" encoding="utf-8"?>
<!-- Generator: Adobe Illustrator 23.0.1, SVG Export Plug-In . SVG Version: 6.00 Build 0)  -->
<svg version="1.1" id="Capa_1" xmlns="http://www.w3.org/2000/svg" xmlns:xlink="http://www.w3.org/1999/xlink" x="0px" y="0px"
	 viewBox="0 0 612.1 834.6" style="enable-background:new 0 0 612.1 834.6;" xml:space="preserve">
<style type="text/css">
	.st0{fill:#005F69;}
	.st1{fill:#005F69;stroke:#005F69;stroke-miterlimit:10;}
</style>
<g>
	<g>
		<path class="st0" d="M539.1,157.2L310.2,46.7c-2-1-4.4-1-6.4,0L74.9,157.2c-2.6,1.2-4.2,3.8-4.2,6.7v268.4c0,2.8,1.6,5.4,4.2,6.7
			l228.9,110.5c1,0.5,2.1,0.7,3.2,0.7s2.2-0.2,3.2-0.7L539.1,439c2.6-1.2,4.2-3.8,4.2-6.7V163.8C543.3,161,541.7,158.4,539.1,157.2z
			 M307,61.5l211.9,102.3l-61.4,29.7c-0.4-0.3-0.8-0.6-1.3-0.8L245.8,91.1L307,61.5z M229.1,99.4l211.6,102.2l-43.3,20.9
			L185.8,120.4L229.1,99.4z M445.6,215.6V293l-40.5,19.5v-77.3L445.6,215.6z M299.6,531L85.5,427.6v-252l204.2,98.6h0.1l9.8,4.7V531
			z M307,266.1l-20.5-9.9c0,0-0.1,0-0.1-0.1L95.1,163.8l73.4-35.4l212,102.3L307,266.1z M528.5,427.6L528.5,427.6L314.4,531V279
			l76-36.6v81.9c0,2.5,1.3,4.9,3.5,6.3c1.2,0.8,2.6,1.1,3.9,1.1c1.1,0,2.2-0.2,3.2-0.7l55.3-26.7c2.6-1.2,4.2-3.8,4.2-6.7v-89.1
			l68.1-32.9L528.5,427.6L528.5,427.6z"/>
	</g>
</g>
<g>
	<g>
		<path class="st0" d="M146.4,421.1l-33.6-16.2c-3.7-1.8-8.1-0.2-9.9,3.4c-1.8,3.7-0.2,8.1,3.4,9.9l33.6,16.2c1,0.5,2.1,0.7,3.2,0.7
			c2.7,0,5.4-1.5,6.7-4.2C151.6,427.3,150.1,422.9,146.4,421.1z"/>
	</g>
</g>
<g>
	<path class="st0" d="M116.7,409.9l0.3-37.3c0-4.1-3.2-7.4-7.3-7.4c-4.1,0-7.4,3.2-7.4,7.3l-0.3,37.3c0,1.1,0.2,2.2,0.7,3.2
		c1.2,2.5,3.7,4.2,6.6,4.2C113.3,417.3,116.7,414,116.7,409.9z"/>
</g>
<g>
	<g>
		<path class="st0" d="M146.4,380.6l-33.6-16.2c-3.7-1.8-8.1-0.2-9.9,3.4c-1.8,3.7-0.2,8.1,3.4,9.9l33.6,16.2c1,0.5,2.1,0.7,3.2,0.7
			c2.7,0,5.4-1.5,6.7-4.2C151.6,386.8,150.1,382.3,146.4,380.6z"/>
	</g>
</g>
<path class="st1" d="M95.9,622.3c-2.9,4.8-6.6,9.7-10.5,14.3v50h-7v-42.2c-3.6,3.7-7.2,7.1-10.7,9.9c-1-1.4-3.5-4.5-4.9-5.9
	c9.8-6.9,20-17.9,26.6-28.6L95.9,622.3z M92.2,602.3c-6.2,8.4-15.9,17.6-24.3,23.6c-1-1.5-2.9-4.3-4.2-5.6
	c7.9-5.3,17-13.9,21.8-20.6L92.2,602.3z M150.4,638.1h-14.3v39.2c0,4.4-1,6.6-4.2,7.7c-3.2,1-8.6,1-17.9,1c-0.3-1.9-1.2-4.8-2.3-6.8
	c6.7,0.2,13,0.2,14.8,0.1c1.8-0.1,2.4-0.5,2.4-2.1v-39.1H97.2v-6.7h53.2V638.1z M147.7,612.1h-46.4v-6.6h46.4V612.1z"/>
<path class="st1" d="M248.6,621.7c0,0-0.1,2.7-0.1,3.6c-1,39.8-1.9,53-5.1,57c-1.6,2.5-3.5,3.2-6.4,3.5c-2.7,0.4-7.1,0.3-11.5,0
	c-0.2-1.9-0.9-4.8-2-6.7c4.6,0.4,8.7,0.5,10.5,0.5c1.6,0,2.5-0.3,3.4-1.5c2.2-2.8,3.3-15.3,4.3-49.8h-13.6
	c-1.1,25.3-5.5,46-22.2,58.5c-1-1.5-3.5-3.9-5.2-5c1.5-1,2.9-2.2,4.2-3.3c-14.4,1.7-29.2,3.3-39.8,4.5l-1-6.2
	c5.7-0.5,12.8-1.1,20.6-1.9v-8.2h-18v-5.4h18v-5.8h-17.8v-28.2h17.8v-6h-20.5v-5.5h20.5v-6.3c-6.1,0.5-12.3,0.9-17.9,1
	c-0.3-1.5-1-3.8-1.7-5.2c14.1-0.8,31.2-2.5,40.9-4.7l3.5,5.4c-5.1,1.1-11.6,2-18.5,2.8v6.9h20.1v5.5H191v6h18.4v28.2H191v5.8h18.6
	v5.4H191v7.5c6.2-0.6,12.6-1.2,19-2v0.5c8.3-11.2,10.7-26.5,11.6-44.4h-11.1v-6.7h11.3c0.2-6.7,0.2-13.6,0.2-20.8h6.7
	c0,7.1,0,14.2-0.2,20.8h20.1V621.7z M172.7,639h12v-6.8h-12V639z M184.6,650.6v-6.9h-12v6.9H184.6z M191,632.1v6.8h12.4v-6.8H191z
	 M203.5,643.6H191v6.9h12.4v-6.9H203.5z"/>
<path class="st1" d="M278.7,612.2c-3,4.8-6.5,9-9.9,12.3c-1-1.1-3.4-3.5-4.9-4.7c5.9-5.2,11.3-12.8,14.5-20.7l6.3,1.7
	c-0.9,1.9-1.7,3.8-2.8,5.7h24.5v5.7h-18c2.9,2.6,6.5,6.1,8.3,8.3l-4.7,3.9c-1.9-2.5-5.8-6.5-8.8-9.4l3.6-2.8H278.7z M307.7,618.9
	c1.3,2.2,2.9,4.9,3.8,7.3H346v15.5h-7v-9.9h-62.8v9.9h-6.8v-15.5h34.9c-0.9-2-1.8-4.2-2.9-6L307.7,618.9z M286.9,663.1h52.6v23.2
	h-6.9v-3h-45.7v3.2h-7v-48.8h54.7v18.9h-47.7V663.1z M286.9,643.1v8.1h40.8v-8.1H286.9z M286.9,668.6v9.1h45.7v-9.1H286.9z
	 M349.8,606.6v5.6h-20.4c3.4,2.8,7.6,6.4,9.8,8.8l-4.8,4.2c-2.2-2.7-6.6-6.7-10.1-9.7l4.1-3.3h-10.8c-2.2,2.9-4.5,5.7-6.9,7.8
	c-1.1-1-3.7-3.2-5.3-4.2c5.1-4.1,9.4-10.3,11.8-16.7l6.5,1.6c-0.8,2-1.6,4-2.7,5.9L349.8,606.6L349.8,606.6z"/>
<path class="st1" d="M394,666.8c-10.2,3.4-21,7.1-29.5,9.9l-1.6-7.1c3.5-1,7.9-2.4,12.7-4V640h-10.8v-6.7h10.8v-20.6h-11.8v-6.6
	h29.5v6.6h-10.9v20.6h9.6v6.7h-9.6v23.5l10.4-3.4L394,666.8z M450.7,676.9v6.5h-61.2v-6.5h28.9v-13h-21.6v-6.5h21.6v-11.1H398V604
	h48.3v42.3h-20.7v11.1h22.1v6.5h-22.1v13L450.7,676.9L450.7,676.9z M404.5,622.2h14.4v-12h-14.4V622.2z M404.5,640.1h14.4v-12.2
	h-14.4V640.1z M439.5,610.2H425v12h14.5V610.2z M439.5,627.9H425v12.2h14.5V627.9z"/>
<path class="st1" d="M491.5,670.7l6.3,4.1c-7.6,4.7-19.9,9.2-29.5,11.7c-1.2-1.4-3.5-3.8-5.2-5.2c9.8-2.3,21.9-6.7,27.9-10.5h-17.7
	V630h67v40.7H491.5z M536.5,624.6h-59.3v-21.3h59.3V624.6z M480.3,641.9H533v-6.7h-52.7V641.9z M480.3,653.6H533V647h-52.7V653.6z
	 M480.3,665.5H533v-6.8h-52.7V665.5z M529.2,609h-44.9v9.9h44.9V609z M520.3,670.9c9.8,2.8,22.4,7.5,29.8,10.5l-6.1,5.1
	c-7.1-3.3-19.9-8.2-29.8-11.1L520.3,670.9z"/>
<path class="st0" d="M109.7,775.9c-0.4,2.2-0.7,4.6-1,7.1c-5.4,1.2-10.4,1.8-14.9,1.8c-4,0-7.9-0.7-11.6-2s-7-3.4-9.8-6.2
	s-4.8-6.1-6.1-10c-1.3-3.8-1.9-7.9-1.9-12.3c0-4.7,0.7-9.2,2.1-13.5s3.5-8,6.4-11c2.8-3,6.3-5.3,10.3-6.8s8.3-2.2,12.7-2.2
	c4.7,0,9.5,0.5,14.2,1.6c0,1.5,0.2,3.9,0.5,7c-3.1-1-5.7-1.7-7.8-2.1c-2.1-0.3-4.2-0.5-6.1-0.5c-3.3,0-6.4,0.6-9.4,1.7
	c-3,1.1-5.7,2.9-8,5.3c-2.3,2.4-4.1,5.4-5.3,8.9c-1.2,3.5-1.8,7.2-1.8,11c0,3.5,0.5,6.9,1.5,10.1c1,3.2,2.5,5.9,4.5,8.1
	c2,2.2,4.4,3.9,7.2,5c2.8,1.2,5.9,1.7,9.4,1.7C99,778.8,104,777.8,109.7,775.9z"/>
<path class="st0" d="M152.7,720.8c4.1,0,7.9,0.7,11.6,2c3.7,1.3,6.9,3.5,9.7,6.5s4.8,6.4,6,10.1c1.2,3.7,1.8,7.8,1.8,12.1
	c0,4.7-0.7,9.2-2,13.5s-3.4,8-6.1,11c-2.8,3-6.1,5.2-10.2,6.7c-4,1.5-8.2,2.2-12.7,2.2c-4.2,0-8.3-0.7-12.1-2
	c-3.9-1.4-7.2-3.5-9.9-6.3s-4.7-6.2-5.9-10c-1.2-3.8-1.8-7.9-1.8-12.2c0-4.7,0.7-9.3,2.2-13.6s3.6-8,6.5-11s6.3-5.2,10.3-6.7
	C144.1,721.5,148.3,720.8,152.7,720.8z M152.2,726.9c-3.3,0-6.4,0.6-9.4,1.7c-2.9,1.2-5.5,3-7.7,5.6s-3.8,5.6-4.9,9.1
	c-1.1,3.5-1.6,7.1-1.6,10.9c0,3.5,0.5,6.9,1.6,10.1c1,3.2,2.6,5.9,4.6,8.1c2,2.1,4.5,3.7,7.4,4.8c2.9,1,5.9,1.6,9,1.6
	c3.2,0,6.2-0.6,9.1-1.7c2.9-1.1,5.4-2.9,7.5-5.3c2.1-2.4,3.7-5.4,4.7-8.8c1-3.5,1.5-7.1,1.5-10.9c0-3.6-0.5-7-1.4-10.2
	c-0.9-3.3-2.4-6-4.4-8.3s-4.4-4-7.2-5C158.3,727.4,155.3,726.9,152.2,726.9z"/>
<path class="st0" d="M194.1,783.8l0.8-12.6l1.4-36.9l0.2-7.2c0-2.3,0-4,0-5.3c2.1,0,3.8,0,5.2,0c1.1,0,2.7,0,4.7,0l4.5,8l27.3,45.3
	l1.7-53.3h3.7h3.6l-0.9,15.9l-1.1,28l-0.5,18.1c-1.6-0.1-3.2-0.1-4.8-0.1c-1.4,0-3.1,0-5,0.1l-3.8-6.7l-28-46.1
	c-0.1,1.7-0.2,4.4-0.3,8l-1.2,32.1l-0.2,12.7c-1.8-0.1-3-0.1-3.6-0.1C197.4,783.8,196.2,783.8,194.1,783.8z"/>
<path class="st0" d="M305,775.9c-0.4,2.2-0.7,4.6-1,7.1c-5.4,1.2-10.4,1.8-14.9,1.8c-4,0-7.9-0.7-11.6-2s-7-3.4-9.8-6.2
	s-4.8-6.1-6.1-10c-1.3-3.8-1.9-7.9-1.9-12.3c0-4.7,0.7-9.2,2.1-13.5s3.5-8,6.4-11c2.8-3,6.3-5.3,10.3-6.8s8.3-2.2,12.7-2.2
	c4.7,0,9.5,0.5,14.2,1.6c0,1.5,0.2,3.9,0.5,7c-3.1-1-5.7-1.7-7.8-2.1c-2.1-0.3-4.2-0.5-6.1-0.5c-3.3,0-6.4,0.6-9.4,1.7
	c-3,1.1-5.7,2.9-8,5.3c-2.3,2.4-4.1,5.4-5.3,8.9c-1.2,3.5-1.8,7.2-1.8,11c0,3.5,0.5,6.9,1.5,10.1c1,3.2,2.5,5.9,4.5,8.1
	c2,2.2,4.4,3.9,7.2,5c2.8,1.2,5.9,1.7,9.4,1.7C294.3,778.8,299.3,777.8,305,775.9z"/>
<path class="st0" d="M317.9,783.8l0.6-10.5l0.9-21.8L320,730c0-1.2,0-2.5,0-3.7v-4.6h4.3h4c-0.5,7.6-0.9,15.5-1.1,23.7
	c-0.4,13.2-0.8,26-0.9,38.3l-3.9-0.1C321.8,783.8,320.4,783.8,317.9,783.8z"/>
<path class="st0" d="M342.3,783.8l1-17.1l1.2-32l0.1-7c0-1.8,0-3.8,0-6c6.2,0,12.6,0,19.1,0h13.2h4.2c-0.2,2.1-0.3,4.2-0.4,6.4
	l-3.7-0.2c-0.9-0.1-2.5-0.1-4.7-0.1s-4.4,0-6.6,0c-6.5,0-11,0-13.6,0.1l-0.7,21.3c4.2,0.1,8,0.1,11.4,0.1c3.7,0,8.5-0.1,14.4-0.2
	c-0.2,2.1-0.3,4.2-0.4,6.3l-14.2-0.1c-2.8,0-6.7,0.1-11.6,0.2l-0.7,22.4h4.3c7.8,0,13,0,15.5-0.1s5.5-0.2,8.9-0.4
	c-0.2,2.2-0.3,4.4-0.4,6.4c-6.6-0.1-12.2-0.1-16.8-0.1L342.3,783.8z"/>
<path class="st0" d="M393.5,783.8l0.8-12.2l0.9-22.6l0.4-19c0.1-3.8,0.1-6.6,0.1-8.2c3.3,0.1,6,0.1,8.2,0.1c1.9,0,3.9,0,6.2-0.1
	c2.3-0.1,4.1-0.1,5.6-0.1c2.6,0,4.9,0.2,7,0.6c2.1,0.4,4,1.3,5.7,2.7s2.9,3,3.7,4.9c0.8,1.9,1.2,4,1.2,6.3s-0.3,4.4-0.9,6.3
	c-0.6,1.9-1.5,3.7-2.7,5.3s-2.6,2.9-4.3,3.9c-1.3,0.8-2.8,1.4-4.7,1.9c-1.3,0.3-3,0.6-5.2,0.9l7.3,12.8l7.5,12.7
	c0.5,0.9,1.3,2.2,2.3,4c-2.1-0.1-3.6-0.1-4.3-0.1c-0.8,0-2.2,0-4.4,0.1l-3-6.2c-0.6-1.2-1.2-2.4-1.8-3.6c-0.6-1.2-1.3-2.5-2-3.8
	l-9.4-16.8c-0.4-0.7-1-1.8-1.9-3.5c2.1,0.4,4,0.6,5.6,0.6c2.8,0,5.3-0.5,7.5-1.5s4-2.6,5.2-4.7c1.2-2.1,1.8-4.4,1.8-7
	c0-1.4-0.2-2.7-0.6-3.9s-1-2.2-1.8-3s-1.7-1.4-2.5-1.8c-0.8-0.4-1.9-0.6-3.1-0.8c-1.3-0.2-2.6-0.3-4.1-0.3l-5.9,0.1
	c-2.5,0-4.1,0-4.8,0c-0.9,20.4-1.4,39.1-1.6,56.2l-4.1-0.1C396.9,783.8,395.6,783.8,393.5,783.8z"/>
<path class="st0" d="M476.8,749.1c4.8,0,8.4,0,11,0c2.7,0,5.8,0,9.2,0c-0.6,9.1-1.1,20-1.4,32.8c-8.3,2-15.5,3-21.4,3
	c-4.4,0-8.6-0.6-12.6-1.9c-4-1.2-7.4-3.1-10.1-5.7c-2.8-2.5-4.8-5.8-6.2-9.8c-1.4-4-2.1-8.2-2.1-12.7c0-5.1,0.9-9.8,2.6-14.3
	s4.2-8.2,7.4-11.2c3.2-3,6.7-5.2,10.7-6.5s8.4-2,13.2-2c5.3,0,11.2,0.8,17.7,2.3c0.1,2.3,0.2,4.7,0.4,7.4c-3.9-1.4-7.2-2.4-10-2.9
	s-5.4-0.8-7.8-0.8c-3.7,0-7.3,0.6-10.6,1.8c-3.4,1.2-6.2,3.1-8.6,5.6s-4.2,5.7-5.5,9.4c-1.2,3.7-1.9,7.6-1.9,11.5
	c0,3.5,0.5,6.9,1.5,10s2.5,5.6,4.6,7.6c2,2,4.5,3.5,7.5,4.5c2.9,1,6.1,1.6,9.6,1.6c1.9,0,4.1-0.2,6.7-0.6c2.6-0.4,5.2-1,7.8-1.9
	l0.8-21.5h-3.9c-2.6,0-5.6,0.1-8.9,0.2C476.7,752.9,476.8,750.9,476.8,749.1z"/>
<path class="st0" d="M511.2,783.8l1-17.1l1.2-32l0.1-7c0-1.8,0-3.8,0-6c6.2,0,12.6,0,19.1,0h13.2h4.2c-0.2,2.1-0.3,4.2-0.4,6.4
	l-3.7-0.2c-0.9-0.1-2.5-0.1-4.7-0.1s-4.4,0-6.6,0c-6.5,0-11,0-13.6,0.1l-0.7,21.3c4.2,0.1,8,0.1,11.4,0.1c3.7,0,8.5-0.1,14.4-0.2
	c-0.2,2.1-0.3,4.2-0.4,6.3l-14.2-0.1c-2.8,0-6.7,0.1-11.6,0.2l-0.7,22.4h4.3c7.8,0,13,0,15.5-0.1s5.5-0.2,8.9-0.4
	c-0.2,2.2-0.3,4.4-0.4,6.4c-6.6-0.1-12.2-0.1-16.8-0.1L511.2,783.8z"/>
</svg>
